<?xml version="1.0" encoding="utf-8"?>
<!-- Generator: Adobe Illustrator 21.1.0, SVG Export Plug-In . SVG Version: 6.00 Build 0)  -->
<svg version="1.0" id="Layer_1" xmlns="http://www.w3.org/2000/svg" xmlns:xlink="http://www.w3.org/1999/xlink" x="0px" y="0px"
	 viewBox="0 0 1100 1100" style="enable-background:new 0 0 1100 1100;" xml:space="preserve">
<style type="text/css">
	.st0{fill:none;stroke:#E32C7E;stroke-width:56;stroke-linecap:round;stroke-miterlimit:10;}
	.st1{fill:none;stroke:#E32C7E;stroke-width:58.61;stroke-linecap:round;stroke-miterlimit:10;}
	.st2{fill:none;stroke:#E32C7E;stroke-width:61.71;stroke-linecap:round;stroke-miterlimit:10;}
	.st3{fill:none;stroke:#E32C7E;stroke-width:63.94;stroke-linecap:round;stroke-miterlimit:10;}
	.st4{fill:none;stroke:#E32C7E;stroke-width:68.93;stroke-linecap:round;stroke-miterlimit:10;}
	.st5{fill:none;stroke:#E32C7E;stroke-width:72.09;stroke-linecap:round;stroke-miterlimit:10;}
	.st6{fill:none;stroke:#E32C7E;stroke-width:74.7;stroke-linecap:round;stroke-miterlimit:10;}
	.st7{fill:none;stroke:#E32C7E;stroke-width:72.49;stroke-linecap:round;stroke-miterlimit:10;}
	.st8{fill:none;stroke:#E32C7E;stroke-width:69.76;stroke-linecap:round;stroke-miterlimit:10;}
	.st9{fill:none;stroke:#E32C7E;stroke-width:64.85;stroke-linecap:round;stroke-miterlimit:10;}
	.st10{fill:none;stroke:#E32C7E;stroke-width:63.25;stroke-linecap:round;stroke-miterlimit:10;}
	.st11{fill:none;stroke:#E32C7E;stroke-width:64.22;stroke-linecap:round;stroke-miterlimit:10;}
	.st12{fill:none;stroke:#E32C7E;stroke-width:62.28;stroke-linecap:round;stroke-miterlimit:10;}
	.st13{fill:none;stroke:#E32C7E;stroke-width:60.39;stroke-linecap:round;stroke-miterlimit:10;}
	.st14{fill:none;stroke:#E32C7E;stroke-width:59.24;stroke-linecap:round;stroke-miterlimit:10;}
	.st15{fill:none;stroke:#E32C7E;stroke-width:59.47;stroke-linecap:round;stroke-miterlimit:10;}
	.st16{fill:none;stroke:#E32C7E;stroke-width:56.41;stroke-linecap:round;stroke-miterlimit:10;}
	.st17{fill:none;stroke:#E32C7E;stroke-width:58.16;stroke-linecap:round;stroke-miterlimit:10;}
	.st18{fill:none;stroke:#E32C7E;stroke-width:61;stroke-linecap:round;stroke-miterlimit:10;}
	.st19{fill:none;stroke:#E32C7E;stroke-width:64;stroke-linecap:round;stroke-miterlimit:10;}
	.st20{fill:none;stroke:#E32C7E;stroke-width:66;stroke-linecap:round;stroke-miterlimit:10;}
	.st21{fill:none;stroke:#E32C7E;stroke-width:69;stroke-linecap:round;stroke-miterlimit:10;}
	.st22{fill:none;stroke:#E32C7E;stroke-width:78;stroke-linecap:round;stroke-miterlimit:10;}
	.st23{fill:none;stroke:#E32C7E;stroke-width:79;stroke-linecap:round;stroke-miterlimit:10;}
	.st24{fill:none;stroke:#E32C7E;stroke-width:80;stroke-linecap:round;stroke-miterlimit:10;}
	.st25{fill:none;stroke:#E32C7E;stroke-width:75.02;stroke-linecap:round;stroke-miterlimit:10;}
	.st26{fill:none;stroke:#E32C7E;stroke-width:76;stroke-linecap:round;stroke-miterlimit:10;}
	.st27{fill:none;stroke:#E32C7E;stroke-width:73;stroke-linecap:round;stroke-miterlimit:10;}
	.st28{fill:none;stroke:#E32C7E;stroke-width:75;stroke-linecap:round;stroke-miterlimit:10;}
	.st29{fill:none;stroke:#E32C7E;stroke-width:73.03;stroke-linecap:round;stroke-miterlimit:10;}
	.st30{fill:none;stroke:#E32C7E;stroke-width:70.03;stroke-linecap:round;stroke-miterlimit:10;}
	.st31{fill:none;stroke:#E32C7E;stroke-width:69.32;stroke-linecap:round;stroke-miterlimit:10;}
	.st32{fill:none;stroke:#E32C7E;stroke-width:68.34;stroke-linecap:round;stroke-miterlimit:10;}
	.st33{fill:none;stroke:#E32C7E;stroke-width:69.14;stroke-linecap:round;stroke-miterlimit:10;}
	.st34{fill:none;stroke:#E32C7E;stroke-width:67.04;stroke-linecap:round;stroke-miterlimit:10;}
	.st35{fill:none;stroke:#E32C7E;stroke-width:68.04;stroke-linecap:round;stroke-miterlimit:10;}
	.st36{fill:none;stroke:#E32C7E;stroke-width:66.05;stroke-linecap:round;stroke-miterlimit:10;}
	.st37{fill:none;stroke:#E32C7E;stroke-width:65.05;stroke-linecap:round;stroke-miterlimit:10;}
	.st38{fill:none;stroke:#E32C7E;stroke-width:64.06;stroke-linecap:round;stroke-miterlimit:10;}
	.st39{fill:none;stroke:#E32C7E;stroke-width:62.07;stroke-linecap:round;stroke-miterlimit:10;}
	.st40{fill:none;stroke:#E32C7E;stroke-width:60.1;stroke-linecap:round;stroke-miterlimit:10;}
	.st41{fill:none;stroke:#E32C7E;stroke-width:62;stroke-linecap:round;stroke-miterlimit:10;}
	.st42{fill:none;stroke:#E32C7E;stroke-width:61.08;stroke-linecap:round;stroke-miterlimit:10;}
	.st43{fill:none;stroke:#E32C7E;stroke-width:60;stroke-linecap:round;stroke-miterlimit:10;}
	.st44{fill:none;stroke:#E32C7E;stroke-width:57;stroke-linecap:round;stroke-miterlimit:10;}
	.st45{fill:none;stroke:#E32C7E;stroke-width:62.62;stroke-linecap:round;stroke-miterlimit:10;}
	.st46{fill:none;stroke:#E32C7E;stroke-width:70.23;stroke-linecap:round;stroke-miterlimit:10;}
	.st47{fill:none;stroke:#E32C7E;stroke-width:74.31;stroke-linecap:round;stroke-miterlimit:10;}
	.st48{fill:none;stroke:#E32C7E;stroke-width:76.93;stroke-linecap:round;stroke-miterlimit:10;}
	.st49{fill:none;stroke:#E32C7E;stroke-width:65.77;stroke-linecap:round;stroke-miterlimit:10;}
	.st50{fill:none;stroke:#E32C7E;stroke-width:57.24;stroke-linecap:round;stroke-miterlimit:10;}
	.st51{fill:none;stroke:#E32C7E;stroke-width:63.06;stroke-linecap:round;stroke-miterlimit:10;}
	.st52{fill:none;stroke:#E32C7E;stroke-width:68.15;stroke-linecap:round;stroke-miterlimit:10;}
	.st53{fill:none;stroke:#E32C7E;stroke-width:73.44;stroke-linecap:round;stroke-miterlimit:10;}
	.st54{fill:none;stroke:#E32C7E;stroke-width:73.25;stroke-linecap:round;stroke-miterlimit:10;}
	.st55{fill:none;stroke:#E32C7E;stroke-width:79.02;stroke-linecap:round;stroke-miterlimit:10;}
	.st56{fill:none;stroke:#E32C7E;stroke-width:78.54;stroke-linecap:round;stroke-miterlimit:10;}
	.st57{fill:none;stroke:#E32C7E;stroke-width:76.02;stroke-linecap:round;stroke-miterlimit:10;}
	.st58{fill:none;stroke:#E32C7E;stroke-width:77.02;stroke-linecap:round;stroke-miterlimit:10;}
	.st59{fill:none;stroke:#E32C7E;stroke-width:74;stroke-linecap:round;stroke-miterlimit:10;}
	.st60{fill:none;stroke:#E32C7E;stroke-width:68;stroke-linecap:round;stroke-miterlimit:10;}
	.st61{fill:none;stroke:#E32C7E;stroke-width:69.04;stroke-linecap:round;stroke-miterlimit:10;}
	.st62{fill:none;stroke:#E32C7E;stroke-width:73.11;stroke-linecap:round;stroke-miterlimit:10;}
	.st63{fill:none;stroke:#E32C7E;stroke-width:72;stroke-linecap:round;stroke-miterlimit:10;}
	.st64{fill:none;stroke:#E32C7E;stroke-width:65;stroke-linecap:round;stroke-miterlimit:10;}
	.st65{fill:none;stroke:#E32C7E;stroke-width:58;stroke-linecap:round;stroke-miterlimit:10;}
	.st66{fill:none;stroke:#E32C7E;stroke-width:62.21;stroke-linecap:round;stroke-miterlimit:10;}
	.st67{fill:none;stroke:#E32C7E;stroke-width:76.4;stroke-linecap:round;stroke-miterlimit:10;}
	.st68{fill:none;stroke:#E32C7E;stroke-width:77.67;stroke-linecap:round;stroke-miterlimit:10;}
	.st69{fill:none;stroke:#E32C7E;stroke-width:68.45;stroke-linecap:round;stroke-miterlimit:10;}
	.st70{fill:none;stroke:#E32C7E;stroke-width:64.9;stroke-linecap:round;stroke-miterlimit:10;}
	.st71{fill:none;stroke:#E32C7E;stroke-width:63.6;stroke-linecap:round;stroke-miterlimit:10;}
	.st72{fill:none;stroke:#E32C7E;stroke-width:57.83;stroke-linecap:round;stroke-miterlimit:10;}
	.st73{fill:none;stroke:#E32C7E;stroke-width:60.83;stroke-linecap:round;stroke-miterlimit:10;}
	.st74{fill:none;stroke:#E32C7E;stroke-width:61.32;stroke-linecap:round;stroke-miterlimit:10;}
	.st75{fill:none;stroke:#E32C7E;stroke-width:59;stroke-linecap:round;stroke-miterlimit:10;}
	.st76{fill:none;stroke:#E32C7E;stroke-width:76.21;stroke-linecap:round;stroke-miterlimit:10;}
	.st77{fill:none;stroke:#E32C7E;stroke-width:75.22;stroke-linecap:round;stroke-miterlimit:10;}
	.st78{fill:none;stroke:#E32C7E;stroke-width:63;stroke-linecap:round;stroke-miterlimit:10;}
	.st79{fill:none;stroke:#E32C7E;stroke-width:59.12;stroke-linecap:round;stroke-miterlimit:10;}
	.st80{fill:none;stroke:#E32C7E;stroke-width:65.2;stroke-linecap:round;stroke-miterlimit:10;}
	.st81{fill:none;stroke:#E32C7E;stroke-width:65.3;stroke-linecap:round;stroke-miterlimit:10;}
	.st82{fill:none;stroke:#E32C7E;stroke-width:61.4;stroke-linecap:round;stroke-miterlimit:10;}
	.st83{fill:none;stroke:#E32C7E;stroke-width:66.18;stroke-linecap:round;stroke-miterlimit:10;}
	.st84{fill:none;stroke:#E32C7E;stroke-width:77.2;stroke-linecap:round;stroke-miterlimit:10;}
	.st85{fill:none;stroke:#E32C7E;stroke-width:78.02;stroke-linecap:round;stroke-miterlimit:10;}
	.st86{fill:none;stroke:#E32C7E;stroke-width:64.49;stroke-linecap:round;stroke-miterlimit:10;}
	.st87{fill:none;stroke:#E32C7E;stroke-width:66.4;stroke-linecap:round;stroke-miterlimit:10;}
	.st88{fill:none;stroke:#E32C7E;stroke-width:71.03;stroke-linecap:round;stroke-miterlimit:10;}
	.st89{fill:none;stroke:#E32C7E;stroke-width:77.56;stroke-linecap:round;stroke-miterlimit:10;}
	.st90{fill:none;stroke:#E32C7E;stroke-width:72.12;stroke-linecap:round;stroke-miterlimit:10;}
	.st91{fill:none;stroke:#FFB241;stroke-width:56;stroke-linecap:round;stroke-miterlimit:10;}
	.st92{fill:none;stroke:#FFB241;stroke-width:57;stroke-linecap:round;stroke-miterlimit:10;}
	.st93{fill:none;stroke:#FFB241;stroke-width:59.12;stroke-linecap:round;stroke-miterlimit:10;}
	.st94{fill:none;stroke:#FFB241;stroke-width:61.08;stroke-linecap:round;stroke-miterlimit:10;}
	.st95{fill:none;stroke:#FFB241;stroke-width:62.07;stroke-linecap:round;stroke-miterlimit:10;}
	.st96{fill:none;stroke:#FFB241;stroke-width:67.04;stroke-linecap:round;stroke-miterlimit:10;}
	.st97{fill:none;stroke:#FFB241;stroke-width:73.03;stroke-linecap:round;stroke-miterlimit:10;}
	.st98{fill:none;stroke:#FFB241;stroke-width:80;stroke-linecap:round;stroke-miterlimit:10;}
	.st99{fill:none;stroke:#FFB241;stroke-width:77.36;stroke-linecap:round;stroke-miterlimit:10;}
	.st100{fill:none;stroke:#FFB241;stroke-width:75.4;stroke-linecap:round;stroke-miterlimit:10;}
	.st101{fill:none;stroke:#FFB241;stroke-width:69.32;stroke-linecap:round;stroke-miterlimit:10;}
	.st102{fill:none;stroke:#FFB241;stroke-width:63.25;stroke-linecap:round;stroke-miterlimit:10;}
	.st103{fill:none;stroke:#FFB241;stroke-width:63.06;stroke-linecap:round;stroke-miterlimit:10;}
	.st104{fill:none;stroke:#FFB241;stroke-width:61.32;stroke-linecap:round;stroke-miterlimit:10;}
	.st105{fill:none;stroke:#FFB241;stroke-width:60;stroke-linecap:round;stroke-miterlimit:10;}
	.st106{fill:none;stroke:#FFB241;stroke-width:60.1;stroke-linecap:round;stroke-miterlimit:10;}
	.st107{fill:none;stroke:#FFB241;stroke-width:64.06;stroke-linecap:round;stroke-miterlimit:10;}
	.st108{fill:none;stroke:#FFB241;stroke-width:58.16;stroke-linecap:round;stroke-miterlimit:10;}
	.st109{fill:none;stroke:#39B876;stroke-width:56;stroke-linecap:round;stroke-miterlimit:10;}
	.st110{fill:none;stroke:#39B876;stroke-width:60;stroke-linecap:round;stroke-miterlimit:10;}
	.st111{fill:none;stroke:#39B876;stroke-width:67;stroke-linecap:round;stroke-miterlimit:10;}
	.st112{fill:none;stroke:#39B876;stroke-width:79.19;stroke-linecap:round;stroke-miterlimit:10;}
	.st113{fill:none;stroke:#39B876;stroke-width:80;stroke-linecap:round;stroke-miterlimit:10;}
	.st114{fill:none;stroke:#39B876;stroke-width:73.11;stroke-linecap:round;stroke-miterlimit:10;}
	.st115{fill:none;stroke:#39B876;stroke-width:64.06;stroke-linecap:round;stroke-miterlimit:10;}
	.st116{fill:none;stroke:#39B876;stroke-width:57;stroke-linecap:round;stroke-miterlimit:10;}
	.st117{fill:none;stroke:#39B876;stroke-width:59;stroke-linecap:round;stroke-miterlimit:10;}
	.st118{fill:none;stroke:#39B876;stroke-width:61.08;stroke-linecap:round;stroke-miterlimit:10;}
	.st119{fill:none;stroke:#39B876;stroke-width:60.39;stroke-linecap:round;stroke-miterlimit:10;}
	.st120{fill:none;stroke:#39B876;stroke-width:62.07;stroke-linecap:round;stroke-miterlimit:10;}
	.st121{fill:none;stroke:#39B876;stroke-width:65.44;stroke-linecap:round;stroke-miterlimit:10;}
	.st122{fill:none;stroke:#39B876;stroke-width:67.08;stroke-linecap:round;stroke-miterlimit:10;}
	.st123{fill:none;stroke:#39B876;stroke-width:70.65;stroke-linecap:round;stroke-miterlimit:10;}
	.st124{fill:none;stroke:#39B876;stroke-width:68.42;stroke-linecap:round;stroke-miterlimit:10;}
	.st125{fill:none;stroke:#39B876;stroke-width:72;stroke-linecap:round;stroke-miterlimit:10;}
	.st126{fill:none;stroke:#39B876;stroke-width:71.64;stroke-linecap:round;stroke-miterlimit:10;}
	.st127{fill:none;stroke:#39B876;stroke-width:75.25;stroke-linecap:round;stroke-miterlimit:10;}
	.st128{fill:none;stroke:#39B876;stroke-width:76.1;stroke-linecap:round;stroke-miterlimit:10;}
	.st129{fill:none;stroke:#39B876;stroke-width:78.02;stroke-linecap:round;stroke-miterlimit:10;}
	.st130{fill:none;stroke:#39B876;stroke-width:72.49;stroke-linecap:round;stroke-miterlimit:10;}
	.st131{fill:none;stroke:#39B876;stroke-width:70.23;stroke-linecap:round;stroke-miterlimit:10;}
	.st132{fill:none;stroke:#39B876;stroke-width:65.77;stroke-linecap:round;stroke-miterlimit:10;}
	.st133{fill:none;stroke:#39B876;stroke-width:61.71;stroke-linecap:round;stroke-miterlimit:10;}
	.st134{fill:none;stroke:#39B876;stroke-width:57.83;stroke-linecap:round;stroke-miterlimit:10;}
	.st135{fill:none;stroke:#39B876;stroke-width:58.61;stroke-linecap:round;stroke-miterlimit:10;}
	.st136{fill:none;stroke:#39B876;stroke-width:57.24;stroke-linecap:round;stroke-miterlimit:10;}
	.st137{fill:none;stroke:#39B876;stroke-width:56.41;stroke-linecap:round;stroke-miterlimit:10;}
	.st138{fill:none;stroke:#39B876;stroke-width:59.12;stroke-linecap:round;stroke-miterlimit:10;}
	.st139{fill:none;stroke:#39B876;stroke-width:71.12;stroke-linecap:round;stroke-miterlimit:10;}
	.st140{fill:none;stroke:#39B876;stroke-width:75.22;stroke-linecap:round;stroke-miterlimit:10;}
	.st141{fill:none;stroke:#39B876;stroke-width:79.7;stroke-linecap:round;stroke-miterlimit:10;}
	.st142{fill:none;stroke:#39B876;stroke-width:73.36;stroke-linecap:round;stroke-miterlimit:10;}
	.st143{fill:none;stroke:#39B876;stroke-width:66.18;stroke-linecap:round;stroke-miterlimit:10;}
	.st144{fill:none;stroke:#39B876;stroke-width:58;stroke-linecap:round;stroke-miterlimit:10;}
	.st145{fill:none;stroke:#39B876;stroke-width:60.1;stroke-linecap:round;stroke-miterlimit:10;}
	.st146{fill:none;stroke:#39B876;stroke-width:64.85;stroke-linecap:round;stroke-miterlimit:10;}
	.st147{fill:none;stroke:#39B876;stroke-width:74.24;stroke-linecap:round;stroke-miterlimit:10;}
	.st148{fill:none;stroke:#39B876;stroke-width:64;stroke-linecap:round;stroke-miterlimit:10;}
	.st149{fill:none;stroke:#39B876;stroke-width:65;stroke-linecap:round;stroke-miterlimit:10;}
	.st150{fill:none;stroke:#39B876;stroke-width:77.2;stroke-linecap:round;stroke-miterlimit:10;}
	.st151{fill:none;stroke:#39B876;stroke-width:70.3;stroke-linecap:round;stroke-miterlimit:10;}
	.st152{fill:none;stroke:#39B876;stroke-width:68.15;stroke-linecap:round;stroke-miterlimit:10;}
	.st153{fill:none;stroke:#39B876;stroke-width:64.22;stroke-linecap:round;stroke-miterlimit:10;}
	.st154{fill:none;stroke:#39B876;stroke-width:63.94;stroke-linecap:round;stroke-miterlimit:10;}
	.st155{fill:none;stroke:#39B876;stroke-width:62.21;stroke-linecap:round;stroke-miterlimit:10;}
</style>
<g>
	<line class="st0" x1="240" y1="628" x2="240" y2="627"/>
	<line class="st0" x1="240" y1="629" x2="240" y2="628"/>
	<line class="st1" x1="242" y1="632" x2="240" y2="629"/>
	<line class="st2" x1="245" y1="638" x2="242" y2="632"/>
	<line class="st3" x1="249" y1="646" x2="245" y2="638"/>
	<line class="st4" x1="254" y1="659" x2="249" y2="646"/>
	<line class="st5" x1="260" y1="675" x2="254" y2="659"/>
	<line class="st6" x1="268" y1="693" x2="260" y2="675"/>
	<line class="st7" x1="277" y1="708" x2="268" y2="693"/>
	<line class="st8" x1="284" y1="721" x2="277" y2="708"/>
	<line class="st3" x1="288" y1="729" x2="284" y2="721"/>
	<line class="st9" x1="292" y1="738" x2="288" y2="729"/>
	<line class="st10" x1="294" y1="746" x2="292" y2="738"/>
	<line class="st11" x1="296" y1="755" x2="294" y2="746"/>
	<line class="st12" x1="298" y1="762" x2="296" y2="755"/>
	<line class="st2" x1="301" y1="768" x2="298" y2="762"/>
	<line class="st13" x1="303" y1="773" x2="301" y2="768"/>
	<line class="st14" x1="306" y1="776" x2="303" y2="773"/>
	<line class="st15" x1="308" y1="780" x2="306" y2="776"/>
	<line class="st1" x1="310" y1="783" x2="308" y2="780"/>
	<line class="st16" x1="311" y1="784" x2="310" y2="783"/>
	<line class="st0" x1="311" y1="785" x2="311" y2="784"/>
	<line class="st0" x1="312" y1="785" x2="311" y2="785"/>
	<line class="st0" x1="313" y1="785" x2="312" y2="785"/>
	<line class="st17" x1="316" y1="786" x2="313" y2="785"/>
	<line class="st18" x1="322" y1="786" x2="316" y2="786"/>
	<line class="st19" x1="331" y1="786" x2="322" y2="786"/>
	<line class="st20" x1="342" y1="786" x2="331" y2="786"/>
	<line class="st21" x1="356" y1="786" x2="342" y2="786"/>
	<line class="st22" x1="379" y1="786" x2="356" y2="786"/>
	<line class="st23" x1="403" y1="786" x2="379" y2="786"/>
	<line class="st24" x1="433" y1="786" x2="403" y2="786"/>
	<line class="st24" x1="459" y1="786" x2="433" y2="786"/>
	<line class="st24" x1="487" y1="784" x2="459" y2="786"/>
	<line class="st25" x1="507" y1="783" x2="487" y2="784"/>
	<line class="st26" x1="528" y1="783" x2="507" y2="783"/>
	<line class="st27" x1="546" y1="783" x2="528" y2="783"/>
	<line class="st28" x1="566" y1="783" x2="546" y2="783"/>
	<line class="st29" x1="584" y1="782" x2="566" y2="783"/>
	<line class="st30" x1="599" y1="781" x2="584" y2="782"/>
	<line class="st31" x1="613" y1="778" x2="599" y2="781"/>
	<line class="st32" x1="626" y1="775" x2="613" y2="778"/>
	<line class="st33" x1="640" y1="773" x2="626" y2="775"/>
	<line class="st34" x1="652" y1="772" x2="640" y2="773"/>
	<line class="st35" x1="665" y1="771" x2="652" y2="772"/>
	<line class="st36" x1="676" y1="770" x2="665" y2="771"/>
	<line class="st34" x1="688" y1="769" x2="676" y2="770"/>
	<line class="st37" x1="698" y1="768" x2="688" y2="769"/>
	<line class="st38" x1="707" y1="767" x2="698" y2="768"/>
	<line class="st39" x1="714" y1="766" x2="707" y2="767"/>
	<line class="st18" x1="720" y1="766" x2="714" y2="766"/>
	<line class="st18" x1="726" y1="766" x2="720" y2="766"/>
	<line class="st40" x1="731" y1="767" x2="726" y2="766"/>
	<line class="st39" x1="738" y1="768" x2="731" y2="767"/>
	<line class="st41" x1="745" y1="768" x2="738" y2="768"/>
	<line class="st19" x1="754" y1="768" x2="745" y2="768"/>
	<line class="st42" x1="760" y1="769" x2="754" y2="768"/>
	<line class="st43" x1="765" y1="769" x2="760" y2="769"/>
	<line class="st0" x1="766" y1="769" x2="765" y2="769"/>
	<line class="st0" x1="767" y1="769" x2="766" y2="769"/>
	<line class="st44" x1="767" y1="767" x2="767" y2="769"/>
	<line class="st15" x1="769" y1="763" x2="767" y2="767"/>
	<line class="st45" x1="772" y1="756" x2="769" y2="763"/>
	<line class="st46" x1="778" y1="742" x2="772" y2="756"/>
	<line class="st47" x1="785" y1="724" x2="778" y2="742"/>
	<line class="st24" x1="794" y1="694" x2="785" y2="724"/>
	<line class="st24" x1="807" y1="664" x2="794" y2="694"/>
	<line class="st24" x1="819" y1="635" x2="807" y2="664"/>
	<line class="st48" x1="828" y1="615" x2="819" y2="635"/>
	<line class="st46" x1="834" y1="601" x2="828" y2="615"/>
	<line class="st49" x1="838" y1="591" x2="834" y2="601"/>
	<line class="st40" x1="839" y1="586" x2="838" y2="591"/>
	<line class="st50" x1="840" y1="584" x2="839" y2="586"/>
	<line class="st16" x1="841" y1="583" x2="840" y2="584"/>
	<line class="st0" x1="841" y1="582" x2="841" y2="583"/>
	<line class="st50" x1="842" y1="580" x2="841" y2="582"/>
	<line class="st0" x1="842" y1="579" x2="842" y2="580"/>
	<line class="st0" x1="841" y1="579" x2="842" y2="579"/>
	<line class="st42" x1="835" y1="580" x2="841" y2="579"/>
	<line class="st51" x1="827" y1="581" x2="835" y2="580"/>
	<line class="st52" x1="814" y1="583" x2="827" y2="581"/>
	<line class="st32" x1="801" y1="586" x2="814" y2="583"/>
	<line class="st53" x1="783" y1="590" x2="801" y2="586"/>
	<line class="st54" x1="765" y1="593" x2="783" y2="590"/>
	<line class="st55" x1="741" y1="594" x2="765" y2="593"/>
	<line class="st24" x1="712" y1="595" x2="741" y2="594"/>
	<line class="st24" x1="680" y1="599" x2="712" y2="595"/>
	<line class="st24" x1="653" y1="602" x2="680" y2="599"/>
	<line class="st24" x1="624" y1="607" x2="653" y2="602"/>
	<line class="st56" x1="601" y1="612" x2="624" y2="607"/>
	<line class="st24" x1="575" y1="616" x2="601" y2="612"/>
	<line class="st57" x1="554" y1="617" x2="575" y2="616"/>
	<line class="st58" x1="532" y1="618" x2="554" y2="617"/>
	<line class="st59" x1="513" y1="618" x2="532" y2="618"/>
	<line class="st60" x1="500" y1="618" x2="513" y2="618"/>
	<line class="st34" x1="488" y1="619" x2="500" y2="618"/>
	<line class="st61" x1="474" y1="620" x2="488" y2="619"/>
	<line class="st26" x1="453" y1="620" x2="474" y2="620"/>
	<line class="st24" x1="428" y1="619" x2="453" y2="620"/>
	<line class="st24" x1="397" y1="617" x2="428" y2="619"/>
	<line class="st28" x1="377" y1="617" x2="397" y2="617"/>
	<line class="st62" x1="359" y1="619" x2="377" y2="617"/>
	<line class="st30" x1="344" y1="620" x2="359" y2="619"/>
	<line class="st27" x1="326" y1="620" x2="344" y2="620"/>
	<line class="st63" x1="309" y1="620" x2="326" y2="620"/>
	<line class="st28" x1="289" y1="620" x2="309" y2="620"/>
	<line class="st21" x1="275" y1="620" x2="289" y2="620"/>
	<line class="st64" x1="265" y1="620" x2="275" y2="620"/>
	<line class="st20" x1="254" y1="620" x2="265" y2="620"/>
	<line class="st19" x1="245" y1="620" x2="254" y2="620"/>
	<line class="st41" x1="238" y1="620" x2="245" y2="620"/>
	<line class="st65" x1="235" y1="620" x2="238" y2="620"/>
	<line class="st16" x1="236" y1="621" x2="235" y2="620"/>
	<line class="st66" x1="242" y1="625" x2="236" y2="621"/>
	<line class="st64" x1="250" y1="631" x2="242" y2="625"/>
	<line class="st53" x1="264" y1="643" x2="250" y2="631"/>
	<line class="st67" x1="281" y1="656" x2="264" y2="643"/>
	<line class="st68" x1="298" y1="671" x2="281" y2="656"/>
	<line class="st69" x1="307" y1="681" x2="298" y2="671"/>
	<line class="st70" x1="314" y1="688" x2="307" y2="681"/>
	<line class="st39" x1="319" y1="693" x2="314" y2="688"/>
	<line class="st71" x1="324" y1="700" x2="319" y2="693"/>
	<line class="st15" x1="326" y1="704" x2="324" y2="700"/>
	<line class="st72" x1="328" y1="706" x2="326" y2="704"/>
	<line class="st17" x1="329" y1="709" x2="328" y2="706"/>
	<line class="st50" x1="330" y1="711" x2="329" y2="709"/>
	<line class="st0" x1="330" y1="712" x2="330" y2="711"/>
	<line class="st50" x1="331" y1="714" x2="330" y2="712"/>
	<line class="st17" x1="332" y1="717" x2="331" y2="714"/>
	<line class="st73" x1="335" y1="722" x2="332" y2="717"/>
	<line class="st13" x1="337" y1="727" x2="335" y2="722"/>
	<line class="st13" x1="339" y1="732" x2="337" y2="727"/>
	<line class="st50" x1="340" y1="734" x2="339" y2="732"/>
	<line class="st0" x1="340" y1="735" x2="340" y2="734"/>
	<line class="st0" x1="340" y1="734" x2="340" y2="735"/>
	<line class="st0" x1="340" y1="733" x2="340" y2="734"/>
	<line class="st0" x1="340" y1="732" x2="340" y2="733"/>
	<line class="st50" x1="341" y1="730" x2="340" y2="732"/>
	<line class="st16" x1="342" y1="729" x2="341" y2="730"/>
	<line class="st50" x1="343" y1="727" x2="342" y2="729"/>
	<line class="st72" x1="345" y1="725" x2="343" y2="727"/>
	<line class="st50" x1="347" y1="724" x2="345" y2="725"/>
	<line class="st16" x1="348" y1="723" x2="347" y2="724"/>
	<line class="st50" x1="349" y1="721" x2="348" y2="723"/>
	<line class="st50" x1="350" y1="719" x2="349" y2="721"/>
	<line class="st50" x1="351" y1="717" x2="350" y2="719"/>
	<line class="st50" x1="352" y1="715" x2="351" y2="717"/>
	<line class="st17" x1="353" y1="712" x2="352" y2="715"/>
	<line class="st40" x1="354" y1="707" x2="353" y2="712"/>
	<line class="st74" x1="356" y1="701" x2="354" y2="707"/>
	<line class="st41" x1="356" y1="694" x2="356" y2="701"/>
	<line class="st42" x1="357" y1="688" x2="356" y2="694"/>
	<line class="st75" x1="357" y1="684" x2="357" y2="688"/>
	<line class="st65" x1="357" y1="681" x2="357" y2="684"/>
	<line class="st0" x1="357" y1="682" x2="357" y2="681"/>
	<line class="st0" x1="356" y1="682" x2="357" y2="682"/>
	<line class="st50" x1="354" y1="683" x2="356" y2="682"/>
	<line class="st16" x1="353" y1="684" x2="354" y2="683"/>
	<line class="st50" x1="351" y1="685" x2="353" y2="684"/>
	<line class="st0" x1="350" y1="685" x2="351" y2="685"/>
	<line class="st50" x1="349" y1="683" x2="350" y2="685"/>
	<line class="st50" x1="348" y1="681" x2="349" y2="683"/>
	<line class="st16" x1="347" y1="680" x2="348" y2="681"/>
	<line class="st0" x1="347" y1="679" x2="347" y2="680"/>
	<line class="st15" x1="351" y1="677" x2="347" y2="679"/>
	<line class="st32" x1="364" y1="674" x2="351" y2="677"/>
	<line class="st76" x1="385" y1="671" x2="364" y2="674"/>
	<line class="st24" x1="416" y1="669" x2="385" y2="671"/>
	<line class="st24" x1="457" y1="666" x2="416" y2="669"/>
	<line class="st24" x1="503" y1="666" x2="457" y2="666"/>
	<line class="st24" x1="556" y1="664" x2="503" y2="666"/>
	<line class="st24" x1="596" y1="663" x2="556" y2="664"/>
	<line class="st24" x1="629" y1="660" x2="596" y2="663"/>
	<line class="st77" x1="649" y1="657" x2="629" y2="660"/>
	<line class="st60" x1="662" y1="657" x2="649" y2="657"/>
	<line class="st78" x1="670" y1="657" x2="662" y2="657"/>
	<line class="st41" x1="677" y1="657" x2="670" y2="657"/>
	<line class="st79" x1="681" y1="658" x2="677" y2="657"/>
	<line class="st44" x1="683" y1="658" x2="681" y2="658"/>
	<line class="st0" x1="684" y1="658" x2="683" y2="658"/>
	<line class="st43" x1="689" y1="658" x2="684" y2="658"/>
	<line class="st10" x1="697" y1="656" x2="689" y2="658"/>
	<line class="st80" x1="707" y1="654" x2="697" y2="656"/>
	<line class="st51" x1="715" y1="653" x2="707" y2="654"/>
	<line class="st74" x1="721" y1="651" x2="715" y2="653"/>
	<line class="st43" x1="726" y1="651" x2="721" y2="651"/>
	<line class="st79" x1="730" y1="650" x2="726" y2="651"/>
	<line class="st75" x1="734" y1="650" x2="730" y2="650"/>
	<line class="st75" x1="738" y1="650" x2="734" y2="650"/>
	<line class="st75" x1="742" y1="650" x2="738" y2="650"/>
	<line class="st43" x1="747" y1="650" x2="742" y2="650"/>
	<line class="st40" x1="752" y1="651" x2="747" y2="650"/>
	<line class="st79" x1="756" y1="652" x2="752" y2="651"/>
	<line class="st75" x1="760" y1="652" x2="756" y2="652"/>
	<line class="st0" x1="761" y1="652" x2="760" y2="652"/>
	<line class="st0" x1="761" y1="653" x2="761" y2="652"/>
	<line class="st17" x1="762" y1="656" x2="761" y2="653"/>
	<line class="st79" x1="763" y1="660" x2="762" y2="656"/>
	<line class="st40" x1="764" y1="665" x2="763" y2="660"/>
	<line class="st18" x1="764" y1="671" x2="764" y2="665"/>
	<line class="st41" x1="764" y1="678" x2="764" y2="671"/>
	<line class="st74" x1="762" y1="684" x2="764" y2="678"/>
	<line class="st81" x1="757" y1="693" x2="762" y2="684"/>
	<line class="st71" x1="752" y1="700" x2="757" y2="693"/>
	<line class="st64" x1="746" y1="708" x2="752" y2="700"/>
	<line class="st66" x1="742" y1="714" x2="746" y2="708"/>
	<line class="st82" x1="738" y1="719" x2="742" y2="714"/>
	<line class="st14" x1="735" y1="722" x2="738" y2="719"/>
	<line class="st14" x1="732" y1="725" x2="735" y2="722"/>
	<line class="st15" x1="728" y1="727" x2="732" y2="725"/>
	<line class="st79" x1="724" y1="728" x2="728" y2="727"/>
	<line class="st19" x1="715" y1="728" x2="724" y2="728"/>
	<line class="st83" x1="704" y1="726" x2="715" y2="728"/>
	<line class="st51" x1="696" y1="725" x2="704" y2="726"/>
	<line class="st78" x1="688" y1="725" x2="696" y2="725"/>
	<line class="st37" x1="678" y1="724" x2="688" y2="725"/>
	<line class="st30" x1="663" y1="723" x2="678" y2="724"/>
	<line class="st24" x1="633" y1="721" x2="663" y2="723"/>
	<line class="st24" x1="598" y1="718" x2="633" y2="721"/>
	<line class="st24" x1="564" y1="718" x2="598" y2="718"/>
	<line class="st77" x1="544" y1="721" x2="564" y2="718"/>
	<line class="st84" x1="522" y1="724" x2="544" y2="721"/>
	<line class="st85" x1="499" y1="725" x2="522" y2="724"/>
	<line class="st24" x1="465" y1="723" x2="499" y2="725"/>
	<line class="st24" x1="434" y1="721" x2="465" y2="723"/>
	<line class="st23" x1="410" y1="721" x2="434" y2="721"/>
	<line class="st36" x1="399" y1="722" x2="410" y2="721"/>
	<line class="st86" x1="390" y1="725" x2="399" y2="722"/>
	<line class="st12" x1="383" y1="727" x2="390" y2="725"/>
	<line class="st87" x1="372" y1="730" x2="383" y2="727"/>
	<line class="st83" x1="361" y1="732" x2="372" y2="730"/>
	<line class="st11" x1="352" y1="734" x2="361" y2="732"/>
	<line class="st15" x1="348" y1="736" x2="352" y2="734"/>
	<line class="st0" x1="347" y1="736" x2="348" y2="736"/>
	<line class="st0" x1="347" y1="737" x2="347" y2="736"/>
	<line class="st43" x1="352" y1="737" x2="347" y2="737"/>
	<line class="st88" x1="368" y1="738" x2="352" y2="737"/>
	<line class="st24" x1="395" y1="738" x2="368" y2="738"/>
	<line class="st24" x1="443" y1="736" x2="395" y2="738"/>
	<line class="st24" x1="502" y1="732" x2="443" y2="736"/>
	<line class="st24" x1="580" y1="724" x2="502" y2="732"/>
	<line class="st24" x1="643" y1="714" x2="580" y2="724"/>
	<line class="st24" x1="695" y1="704" x2="643" y2="714"/>
	<line class="st24" x1="725" y1="696" x2="695" y2="704"/>
	<line class="st89" x1="747" y1="691" x2="725" y2="696"/>
	<line class="st90" x1="764" y1="689" x2="747" y2="691"/>
	<line class="st60" x1="777" y1="689" x2="764" y2="689"/>
	<line class="st64" x1="787" y1="689" x2="777" y2="689"/>
	<line class="st43" x1="792" y1="689" x2="787" y2="689"/>
	<line class="st44" x1="794" y1="689" x2="792" y2="689"/>
	<line class="st0" x1="795" y1="689" x2="794" y2="689"/>
	<line class="st0" x1="794" y1="689" x2="795" y2="689"/>
	<line class="st0" x1="793" y1="689" x2="794" y2="689"/>
	<line class="st44" x1="791" y1="689" x2="793" y2="689"/>
	<line class="st0" x1="790" y1="689" x2="791" y2="689"/>
	<line class="st0" x1="789" y1="689" x2="790" y2="689"/>
	<line class="st0" x1="788" y1="689" x2="789" y2="689"/>
	<line class="st91" x1="540" y1="567" x2="540" y2="568"/>
	<line class="st92" x1="540" y1="565" x2="540" y2="567"/>
	<line class="st93" x1="539" y1="561" x2="540" y2="565"/>
	<line class="st94" x1="538" y1="555" x2="539" y2="561"/>
	<line class="st95" x1="537" y1="548" x2="538" y2="555"/>
	<line class="st96" x1="536" y1="536" x2="537" y2="548"/>
	<line class="st97" x1="535" y1="518" x2="536" y2="536"/>
	<line class="st98" x1="532" y1="490" x2="535" y2="518"/>
	<line class="st98" x1="530" y1="462" x2="532" y2="490"/>
	<line class="st98" x1="525" y1="432" x2="530" y2="462"/>
	<line class="st99" x1="521" y1="410" x2="525" y2="432"/>
	<line class="st100" x1="517" y1="390" x2="521" y2="410"/>
	<line class="st101" x1="514" y1="376" x2="517" y2="390"/>
	<line class="st96" x1="513" y1="364" x2="514" y2="376"/>
	<line class="st102" x1="511" y1="356" x2="513" y2="364"/>
	<line class="st103" x1="510" y1="348" x2="511" y2="356"/>
	<line class="st104" x1="508" y1="342" x2="510" y2="348"/>
	<line class="st105" x1="508" y1="337" x2="508" y2="342"/>
	<line class="st106" x1="507" y1="332" x2="508" y2="337"/>
	<line class="st106" x1="506" y1="327" x2="507" y2="332"/>
	<line class="st94" x1="505" y1="321" x2="506" y2="327"/>
	<line class="st107" x1="504" y1="312" x2="505" y2="321"/>
	<line class="st107" x1="503" y1="303" x2="504" y2="312"/>
	<line class="st107" x1="502" y1="294" x2="503" y2="303"/>
	<line class="st94" x1="501" y1="288" x2="502" y2="294"/>
	<line class="st108" x1="500" y1="285" x2="501" y2="288"/>
	<line class="st92" x1="500" y1="283" x2="500" y2="285"/>
	<line class="st91" x1="500" y1="282" x2="500" y2="283"/>
	<line class="st91" x1="500" y1="281" x2="500" y2="282"/>
	<line class="st108" x1="499" y1="278" x2="500" y2="281"/>
	<line class="st92" x1="499" y1="276" x2="499" y2="278"/>
	<line class="st109" x1="519" y1="279" x2="518" y2="279"/>
	<line class="st110" x1="524" y1="279" x2="519" y2="279"/>
	<line class="st111" x1="536" y1="279" x2="524" y2="279"/>
	<line class="st112" x1="560" y1="282" x2="536" y2="279"/>
	<line class="st113" x1="588" y1="287" x2="560" y2="282"/>
	<line class="st113" x1="624" y1="294" x2="588" y2="287"/>
	<line class="st113" x1="664" y1="302" x2="624" y2="294"/>
	<line class="st113" x1="712" y1="313" x2="664" y2="302"/>
	<line class="st113" x1="751" y1="322" x2="712" y2="313"/>
	<line class="st113" x1="784" y1="328" x2="751" y2="322"/>
	<line class="st114" x1="802" y1="330" x2="784" y2="328"/>
	<line class="st115" x1="811" y1="331" x2="802" y2="330"/>
	<line class="st116" x1="813" y1="331" x2="811" y2="331"/>
	<line class="st109" x1="812" y1="331" x2="813" y2="331"/>
	<line class="st117" x1="808" y1="331" x2="812" y2="331"/>
	<line class="st118" x1="802" y1="332" x2="808" y2="331"/>
	<line class="st119" x1="797" y1="334" x2="802" y2="332"/>
	<line class="st120" x1="790" y1="335" x2="797" y2="334"/>
	<line class="st121" x1="780" y1="338" x2="790" y2="335"/>
	<line class="st122" x1="769" y1="343" x2="780" y2="338"/>
	<line class="st123" x1="755" y1="350" x2="769" y2="343"/>
	<line class="st124" x1="743" y1="356" x2="755" y2="350"/>
	<line class="st125" x1="728" y1="364" x2="743" y2="356"/>
	<line class="st126" x1="714" y1="373" x2="728" y2="364"/>
	<line class="st127" x1="697" y1="384" x2="714" y2="373"/>
	<line class="st128" x1="679" y1="395" x2="697" y2="384"/>
	<line class="st129" x1="660" y1="408" x2="679" y2="395"/>
	<line class="st130" x1="645" y1="417" x2="660" y2="408"/>
	<line class="st131" x1="631" y1="423" x2="645" y2="417"/>
	<line class="st132" x1="621" y1="427" x2="631" y2="423"/>
	<line class="st133" x1="615" y1="430" x2="621" y2="427"/>
	<line class="st134" x1="613" y1="432" x2="615" y2="430"/>
	<line class="st134" x1="611" y1="434" x2="613" y2="432"/>
	<line class="st134" x1="609" y1="436" x2="611" y2="434"/>
	<line class="st135" x1="606" y1="438" x2="609" y2="436"/>
	<line class="st135" x1="603" y1="440" x2="606" y2="438"/>
	<line class="st134" x1="601" y1="442" x2="603" y2="440"/>
	<line class="st136" x1="599" y1="443" x2="601" y2="442"/>
	<line class="st135" x1="597" y1="446" x2="599" y2="443"/>
	<line class="st135" x1="594" y1="448" x2="597" y2="446"/>
	<line class="st110" x1="590" y1="451" x2="594" y2="448"/>
	<line class="st135" x1="588" y1="454" x2="590" y2="451"/>
	<line class="st135" x1="585" y1="456" x2="588" y2="454"/>
	<line class="st134" x1="583" y1="458" x2="585" y2="456"/>
	<line class="st135" x1="580" y1="460" x2="583" y2="458"/>
	<line class="st136" x1="578" y1="461" x2="580" y2="460"/>
	<line class="st137" x1="577" y1="462" x2="578" y2="461"/>
	<line class="st109" x1="576" y1="462" x2="577" y2="462"/>
	<line class="st138" x1="575" y1="458" x2="576" y2="462"/>
	<line class="st120" x1="574" y1="451" x2="575" y2="458"/>
	<line class="st139" x1="572" y1="435" x2="574" y2="451"/>
	<line class="st140" x1="569" y1="415" x2="572" y2="435"/>
	<line class="st141" x1="560" y1="392" x2="569" y2="415"/>
	<line class="st113" x1="548" y1="367" x2="560" y2="392"/>
	<line class="st142" x1="539" y1="351" x2="548" y2="367"/>
	<line class="st143" x1="534" y1="341" x2="539" y2="351"/>
	<line class="st119" x1="532" y1="336" x2="534" y2="341"/>
	<line class="st138" x1="531" y1="332" x2="532" y2="336"/>
	<line class="st117" x1="531" y1="328" x2="531" y2="332"/>
	<line class="st144" x1="531" y1="325" x2="531" y2="328"/>
	<line class="st144" x1="531" y1="322" x2="531" y2="325"/>
	<line class="st116" x1="531" y1="320" x2="531" y2="322"/>
	<line class="st109" x1="531" y1="319" x2="531" y2="320"/>
	<line class="st109" x1="531" y1="318" x2="531" y2="319"/>
	<line class="st116" x1="531" y1="316" x2="531" y2="318"/>
	<line class="st145" x1="532" y1="311" x2="531" y2="316"/>
	<line class="st118" x1="533" y1="305" x2="532" y2="311"/>
	<line class="st117" x1="533" y1="301" x2="533" y2="305"/>
	<line class="st116" x1="533" y1="299" x2="533" y2="301"/>
	<line class="st116" x1="533" y1="297" x2="533" y2="299"/>
	<line class="st109" x1="533" y1="296" x2="533" y2="297"/>
	<line class="st109" x1="533" y1="295" x2="533" y2="296"/>
	<line class="st109" x1="533" y1="294" x2="533" y2="295"/>
	<line class="st109" x1="534" y1="294" x2="533" y2="294"/>
	<line class="st146" x1="543" y1="298" x2="534" y2="294"/>
	<line class="st147" x1="560" y1="307" x2="543" y2="298"/>
	<line class="st113" x1="589" y1="324" x2="560" y2="307"/>
	<line class="st113" x1="626" y1="338" x2="589" y2="324"/>
	<line class="st113" x1="668" y1="347" x2="626" y2="338"/>
	<line class="st113" x1="693" y1="349" x2="668" y2="347"/>
	<line class="st148" x1="702" y1="349" x2="693" y2="349"/>
	<line class="st109" x1="703" y1="349" x2="702" y2="349"/>
	<line class="st109" x1="702" y1="349" x2="703" y2="349"/>
	<line class="st110" x1="697" y1="349" x2="702" y2="349"/>
	<line class="st149" x1="687" y1="349" x2="697" y2="349"/>
	<line class="st139" x1="671" y1="351" x2="687" y2="349"/>
	<line class="st150" x1="649" y1="354" x2="671" y2="351"/>
	<line class="st151" x1="634" y1="357" x2="649" y2="354"/>
	<line class="st152" x1="621" y1="359" x2="634" y2="357"/>
	<line class="st153" x1="612" y1="361" x2="621" y2="359"/>
	<line class="st119" x1="607" y1="363" x2="612" y2="361"/>
	<line class="st134" x1="605" y1="365" x2="607" y2="363"/>
	<line class="st109" x1="604" y1="365" x2="605" y2="365"/>
	<line class="st137" x1="603" y1="366" x2="604" y2="365"/>
	<line class="st109" x1="603" y1="367" x2="603" y2="366"/>
	<line class="st117" x1="603" y1="371" x2="603" y2="367"/>
	<line class="st110" x1="603" y1="376" x2="603" y2="371"/>
	<line class="st110" x1="603" y1="381" x2="603" y2="376"/>
	<line class="st144" x1="603" y1="384" x2="603" y2="381"/>
	<line class="st116" x1="603" y1="386" x2="603" y2="384"/>
	<line class="st109" x1="603" y1="387" x2="603" y2="386"/>
	<line class="st109" x1="603" y1="388" x2="603" y2="387"/>
	<line class="st109" x1="603" y1="389" x2="603" y2="388"/>
	<line class="st137" x1="604" y1="390" x2="603" y2="389"/>
	<line class="st135" x1="606" y1="393" x2="604" y2="390"/>
	<line class="st136" x1="607" y1="395" x2="606" y2="393"/>
	<line class="st109" x1="608" y1="395" x2="607" y2="395"/>
	<line class="st109" x1="608" y1="394" x2="608" y2="395"/>
	<line class="st145" x1="609" y1="389" x2="608" y2="394"/>
	<line class="st154" x1="613" y1="381" x2="609" y2="389"/>
	<line class="st155" x1="617" y1="375" x2="613" y2="381"/>
	<line class="st119" x1="619" y1="370" x2="617" y2="375"/>
	<line class="st136" x1="620" y1="368" x2="619" y2="370"/>
</g>
</svg>
